<svg xmlns="http://www.w3.org/2000/svg" version="1.1" xmlns:xlink="http://www.w3.org/1999/xlink" viewBox="0 0 200 200"><rect width="200" height="200" fill="url('#gradient')"></rect><defs><linearGradient id="gradient" gradientTransform="rotate(48 0.5 0.5)"><stop offset="0%" stop-color="#000000"></stop><stop offset="100%" stop-color="#000000"></stop></linearGradient></defs><g><g fill="#a1bdff" transform="matrix(6.249286898839138,0,0,6.249286898839138,7.261718852206144,138.74186683408064)" stroke="#1e90ff" stroke-width="1.1"><path d="M4.95 0L1.65 0L1.65-8.28L0.12-8.28L0.12-10.57L1.65-10.57L1.65-11.41Q1.65-13.21 2.71-14.21Q3.78-15.21 5.70-15.21L5.70-15.21Q6.41-15.21 7.25-15L7.25-15L7.26-12.58Q6.95-12.67 6.45-12.67L6.45-12.67Q4.95-12.67 4.95-11.38L4.95-11.38L4.95-10.57L7.01-10.57L7.01-8.28L4.95-8.28L4.95 0ZM14.67-3.77L14.67-3.77Q14.67-4.54 14.29-4.98Q13.91-5.42 12.95-5.81Q11.99-6.20 11.18-6.60Q10.37-7.00 9.79-7.53Q9.20-8.06 8.89-8.75Q8.57-9.44 8.57-10.43L8.57-10.43Q8.57-12.08 9.69-13.15Q10.80-14.22 12.66-14.39L12.66-14.39L12.66-16.46L14.21-16.46L14.21-14.36Q16.00-14.09 17.02-12.89Q18.04-11.68 18.04-9.82L18.04-9.82L14.74-9.82Q14.74-10.84 14.35-11.39Q13.96-11.93 13.23-11.93L13.23-11.93Q12.59-11.93 12.23-11.53Q11.88-11.12 11.88-10.41L11.88-10.41Q11.88-9.69 12.29-9.26Q12.70-8.84 13.60-8.45Q14.51-8.07 15.32-7.65Q16.12-7.24 16.71-6.71Q17.29-6.18 17.63-5.48Q17.96-4.78 17.96-3.79L17.96-3.79Q17.96-2.12 16.90-1.06Q15.84-0.01 14.01 0.17L14.01 0.17L14.01 2.13L12.46 2.13L12.46 0.16Q10.33-0.07 9.19-1.30Q8.06-2.54 8.06-4.56L8.06-4.56L11.35-4.56Q11.35-3.45 11.84-2.87Q12.33-2.29 13.24-2.29L13.24-2.29Q13.91-2.29 14.29-2.68Q14.67-3.08 14.67-3.77ZM29.56-5.36L29.56-5.21Q29.56-2.74 28.45-1.27Q27.34 0.20 25.46 0.20L25.46 0.20Q24.00 0.20 23.07-0.87L23.07-0.87L23.07 4.06L19.78 4.06L19.78-10.57L22.85-10.57L22.95-9.59Q23.90-10.76 25.44-10.76L25.44-10.76Q27.39-10.76 28.48-9.32Q29.56-7.88 29.56-5.36L29.56-5.36ZM26.27-5.06L26.27-5.41Q26.27-8.22 24.63-8.22L24.63-8.22Q23.46-8.22 23.07-7.38L23.07-7.38L23.07-3.22Q23.50-2.34 24.65-2.34L24.65-2.34Q26.22-2.34 26.27-5.06L26.27-5.06Z"></path></g></g></svg>